<svg id="visual" viewBox="0 0 900 600" width="900" height="600" xmlns="http://www.w3.org/2000/svg" xmlns:xlink="http://www.w3.org/1999/xlink" version="1.1"><rect x="0" y="0" width="900" height="600" fill="#001220"></rect><defs><linearGradient id="grad1_0" x1="33.3%" y1="0%" x2="100%" y2="100%"><stop offset="20%" stop-color="#fbae3c" stop-opacity="1"></stop><stop offset="80%" stop-color="#fbae3c" stop-opacity="1"></stop></linearGradient></defs><defs><linearGradient id="grad1_1" x1="33.3%" y1="0%" x2="100%" y2="100%"><stop offset="20%" stop-color="#fbae3c" stop-opacity="1"></stop><stop offset="80%" stop-color="#f48350" stop-opacity="1"></stop></linearGradient></defs><defs><linearGradient id="grad1_2" x1="33.3%" y1="0%" x2="100%" y2="100%"><stop offset="20%" stop-color="#d96162" stop-opacity="1"></stop><stop offset="80%" stop-color="#f48350" stop-opacity="1"></stop></linearGradient></defs><defs><linearGradient id="grad1_3" x1="33.3%" y1="0%" x2="100%" y2="100%"><stop offset="20%" stop-color="#d96162" stop-opacity="1"></stop><stop offset="80%" stop-color="#af4b6d" stop-opacity="1"></stop></linearGradient></defs><defs><linearGradient id="grad1_4" x1="33.3%" y1="0%" x2="100%" y2="100%"><stop offset="20%" stop-color="#7c3e6b" stop-opacity="1"></stop><stop offset="80%" stop-color="#af4b6d" stop-opacity="1"></stop></linearGradient></defs><defs><linearGradient id="grad1_5" x1="33.3%" y1="0%" x2="100%" y2="100%"><stop offset="20%" stop-color="#7c3e6b" stop-opacity="1"></stop><stop offset="80%" stop-color="#49335c" stop-opacity="1"></stop></linearGradient></defs><defs><linearGradient id="grad1_6" x1="33.3%" y1="0%" x2="100%" y2="100%"><stop offset="20%" stop-color="#1d2540" stop-opacity="1"></stop><stop offset="80%" stop-color="#49335c" stop-opacity="1"></stop></linearGradient></defs><defs><linearGradient id="grad1_7" x1="33.3%" y1="0%" x2="100%" y2="100%"><stop offset="20%" stop-color="#1d2540" stop-opacity="1"></stop><stop offset="80%" stop-color="#001220" stop-opacity="1"></stop></linearGradient></defs><defs><linearGradient id="grad2_0" x1="0%" y1="0%" x2="66.7%" y2="100%"><stop offset="20%" stop-color="#fbae3c" stop-opacity="1"></stop><stop offset="80%" stop-color="#fbae3c" stop-opacity="1"></stop></linearGradient></defs><defs><linearGradient id="grad2_1" x1="0%" y1="0%" x2="66.7%" y2="100%"><stop offset="20%" stop-color="#f48350" stop-opacity="1"></stop><stop offset="80%" stop-color="#fbae3c" stop-opacity="1"></stop></linearGradient></defs><defs><linearGradient id="grad2_2" x1="0%" y1="0%" x2="66.7%" y2="100%"><stop offset="20%" stop-color="#f48350" stop-opacity="1"></stop><stop offset="80%" stop-color="#d96162" stop-opacity="1"></stop></linearGradient></defs><defs><linearGradient id="grad2_3" x1="0%" y1="0%" x2="66.7%" y2="100%"><stop offset="20%" stop-color="#af4b6d" stop-opacity="1"></stop><stop offset="80%" stop-color="#d96162" stop-opacity="1"></stop></linearGradient></defs><defs><linearGradient id="grad2_4" x1="0%" y1="0%" x2="66.7%" y2="100%"><stop offset="20%" stop-color="#af4b6d" stop-opacity="1"></stop><stop offset="80%" stop-color="#7c3e6b" stop-opacity="1"></stop></linearGradient></defs><defs><linearGradient id="grad2_5" x1="0%" y1="0%" x2="66.7%" y2="100%"><stop offset="20%" stop-color="#49335c" stop-opacity="1"></stop><stop offset="80%" stop-color="#7c3e6b" stop-opacity="1"></stop></linearGradient></defs><defs><linearGradient id="grad2_6" x1="0%" y1="0%" x2="66.7%" y2="100%"><stop offset="20%" stop-color="#49335c" stop-opacity="1"></stop><stop offset="80%" stop-color="#1d2540" stop-opacity="1"></stop></linearGradient></defs><defs><linearGradient id="grad2_7" x1="0%" y1="0%" x2="66.7%" y2="100%"><stop offset="20%" stop-color="#001220" stop-opacity="1"></stop><stop offset="80%" stop-color="#1d2540" stop-opacity="1"></stop></linearGradient></defs><g transform="translate(900, 0)"><path d="M0 378.6C-50.6 342.2 -101.1 305.9 -161 278.9C-220.9 251.9 -290 234.2 -327.9 189.3C-365.7 144.4 -372.1 72.2 -378.6 0L0 0Z" fill="#0c1c30"></path><path d="M0 331.3C-44.2 299.4 -88.5 267.6 -140.9 244C-193.3 220.4 -253.8 204.9 -286.9 165.6C-320 126.3 -325.6 63.2 -331.3 0L0 0Z" fill="#312c4f"></path><path d="M0 283.9C-37.9 256.7 -75.8 229.4 -120.7 209.1C-165.7 188.9 -217.5 175.7 -245.9 142C-274.3 108.3 -279.1 54.1 -283.9 0L0 0Z" fill="#623965"></path><path d="M0 236.6C-31.6 213.9 -63.2 191.2 -100.6 174.3C-138 157.4 -181.3 146.4 -204.9 118.3C-228.5 90.2 -232.6 45.1 -236.6 0L0 0Z" fill="#96446e"></path><path d="M0 189.3C-25.3 171.1 -50.6 152.9 -80.5 139.4C-110.4 125.9 -145 117.1 -163.9 94.6C-182.8 72.2 -186.1 36.1 -189.3 0L0 0Z" fill="#c55469"></path><path d="M0 142C-19 128.3 -37.9 114.7 -60.4 104.6C-82.8 94.4 -108.8 87.8 -122.9 71C-137.1 54.1 -139.5 27.1 -142 0L0 0Z" fill="#e9705a"></path><path d="M0 94.6C-12.6 85.6 -25.3 76.5 -40.2 69.7C-55.2 63 -72.5 58.6 -82 47.3C-91.4 36.1 -93 18 -94.6 0L0 0Z" fill="#fa9845"></path><path d="M0 47.3C-6.3 42.8 -12.6 38.2 -20.1 34.9C-27.6 31.5 -36.3 29.3 -41 23.7C-45.7 18 -46.5 9 -47.3 0L0 0Z" fill="#fbae3c"></path></g><g transform="translate(0, 600)"><path d="M0 -378.6C75 -373.7 149.9 -368.9 189.3 -327.9C228.7 -286.8 232.5 -209.7 258.1 -149C283.7 -88.3 331.1 -44.2 378.6 0L0 0Z" fill="#0c1c30"></path><path d="M0 -331.3C65.6 -327 131.2 -322.8 165.6 -286.9C200.1 -251 203.4 -183.5 225.8 -130.4C248.2 -77.3 289.7 -38.6 331.3 0L0 0Z" fill="#312c4f"></path><path d="M0 -283.9C56.2 -280.3 112.4 -276.7 142 -245.9C171.5 -215.1 174.3 -157.3 193.6 -111.8C212.8 -66.2 248.4 -33.1 283.9 0L0 0Z" fill="#623965"></path><path d="M0 -236.6C46.8 -233.6 93.7 -230.5 118.3 -204.9C142.9 -179.3 145.3 -131 161.3 -93.1C177.3 -55.2 207 -27.6 236.6 0L0 0Z" fill="#96446e"></path><path d="M0 -189.3C37.5 -186.9 75 -184.4 94.6 -163.9C114.3 -143.4 116.2 -104.8 129 -74.5C141.8 -44.2 165.6 -22.1 189.3 0L0 0Z" fill="#c55469"></path><path d="M0 -142C28.1 -140.1 56.2 -138.3 71 -122.9C85.7 -107.6 87.2 -78.6 96.8 -55.9C106.4 -33.1 124.2 -16.6 142 0L0 0Z" fill="#e9705a"></path><path d="M0 -94.6C18.7 -93.4 37.5 -92.2 47.3 -82C57.2 -71.7 58.1 -52.4 64.5 -37.3C70.9 -22.1 82.8 -11 94.6 0L0 0Z" fill="#fa9845"></path><path d="M0 -47.3C9.4 -46.7 18.7 -46.1 23.7 -41C28.6 -35.9 29.1 -26.2 32.3 -18.6C35.5 -11 41.4 -5.5 47.3 0L0 0Z" fill="#fbae3c"></path></g></svg>