<svg id="visual" viewBox="0 0 900 600" width="900" height="600" xmlns="http://www.w3.org/2000/svg" xmlns:xlink="http://www.w3.org/1999/xlink" version="1.1"><rect x="0" y="0" width="900" height="600" fill="#001220"></rect><defs><linearGradient id="grad1_0" x1="33.3%" y1="0%" x2="100%" y2="100%"><stop offset="20%" stop-color="#fbae3c" stop-opacity="1"></stop><stop offset="80%" stop-color="#fbae3c" stop-opacity="1"></stop></linearGradient></defs><defs><linearGradient id="grad1_1" x1="33.3%" y1="0%" x2="100%" y2="100%"><stop offset="20%" stop-color="#fbae3c" stop-opacity="1"></stop><stop offset="80%" stop-color="#f48350" stop-opacity="1"></stop></linearGradient></defs><defs><linearGradient id="grad1_2" x1="33.3%" y1="0%" x2="100%" y2="100%"><stop offset="20%" stop-color="#d96162" stop-opacity="1"></stop><stop offset="80%" stop-color="#f48350" stop-opacity="1"></stop></linearGradient></defs><defs><linearGradient id="grad1_3" x1="33.3%" y1="0%" x2="100%" y2="100%"><stop offset="20%" stop-color="#d96162" stop-opacity="1"></stop><stop offset="80%" stop-color="#af4b6d" stop-opacity="1"></stop></linearGradient></defs><defs><linearGradient id="grad1_4" x1="33.3%" y1="0%" x2="100%" y2="100%"><stop offset="20%" stop-color="#7c3e6b" stop-opacity="1"></stop><stop offset="80%" stop-color="#af4b6d" stop-opacity="1"></stop></linearGradient></defs><defs><linearGradient id="grad1_5" x1="33.3%" y1="0%" x2="100%" y2="100%"><stop offset="20%" stop-color="#7c3e6b" stop-opacity="1"></stop><stop offset="80%" stop-color="#49335c" stop-opacity="1"></stop></linearGradient></defs><defs><linearGradient id="grad1_6" x1="33.3%" y1="0%" x2="100%" y2="100%"><stop offset="20%" stop-color="#1d2540" stop-opacity="1"></stop><stop offset="80%" stop-color="#49335c" stop-opacity="1"></stop></linearGradient></defs><defs><linearGradient id="grad1_7" x1="33.3%" y1="0%" x2="100%" y2="100%"><stop offset="20%" stop-color="#1d2540" stop-opacity="1"></stop><stop offset="80%" stop-color="#001220" stop-opacity="1"></stop></linearGradient></defs><defs><linearGradient id="grad2_0" x1="0%" y1="0%" x2="66.7%" y2="100%"><stop offset="20%" stop-color="#fbae3c" stop-opacity="1"></stop><stop offset="80%" stop-color="#fbae3c" stop-opacity="1"></stop></linearGradient></defs><defs><linearGradient id="grad2_1" x1="0%" y1="0%" x2="66.7%" y2="100%"><stop offset="20%" stop-color="#f48350" stop-opacity="1"></stop><stop offset="80%" stop-color="#fbae3c" stop-opacity="1"></stop></linearGradient></defs><defs><linearGradient id="grad2_2" x1="0%" y1="0%" x2="66.7%" y2="100%"><stop offset="20%" stop-color="#f48350" stop-opacity="1"></stop><stop offset="80%" stop-color="#d96162" stop-opacity="1"></stop></linearGradient></defs><defs><linearGradient id="grad2_3" x1="0%" y1="0%" x2="66.7%" y2="100%"><stop offset="20%" stop-color="#af4b6d" stop-opacity="1"></stop><stop offset="80%" stop-color="#d96162" stop-opacity="1"></stop></linearGradient></defs><defs><linearGradient id="grad2_4" x1="0%" y1="0%" x2="66.7%" y2="100%"><stop offset="20%" stop-color="#af4b6d" stop-opacity="1"></stop><stop offset="80%" stop-color="#7c3e6b" stop-opacity="1"></stop></linearGradient></defs><defs><linearGradient id="grad2_5" x1="0%" y1="0%" x2="66.7%" y2="100%"><stop offset="20%" stop-color="#49335c" stop-opacity="1"></stop><stop offset="80%" stop-color="#7c3e6b" stop-opacity="1"></stop></linearGradient></defs><defs><linearGradient id="grad2_6" x1="0%" y1="0%" x2="66.7%" y2="100%"><stop offset="20%" stop-color="#49335c" stop-opacity="1"></stop><stop offset="80%" stop-color="#1d2540" stop-opacity="1"></stop></linearGradient></defs><defs><linearGradient id="grad2_7" x1="0%" y1="0%" x2="66.7%" y2="100%"><stop offset="20%" stop-color="#001220" stop-opacity="1"></stop><stop offset="80%" stop-color="#1d2540" stop-opacity="1"></stop></linearGradient></defs><g transform="translate(900, 0)"><path d="M0 270.4C-57.9 269.5 -115.8 268.5 -135.2 234.2C-154.6 199.8 -135.4 132.1 -151.6 87.5C-167.7 42.9 -219 21.5 -270.4 0L0 0Z" fill="#0c1c30"></path><path d="M0 236.6C-50.7 235.8 -101.3 235 -118.3 204.9C-135.3 174.9 -118.5 115.6 -132.6 76.6C-146.7 37.5 -191.7 18.8 -236.6 0L0 0Z" fill="#312c4f"></path><path d="M0 202.8C-43.4 202.1 -86.9 201.4 -101.4 175.6C-115.9 149.9 -101.6 99.1 -113.7 65.6C-125.8 32.2 -164.3 16.1 -202.8 0L0 0Z" fill="#623965"></path><path d="M0 169C-36.2 168.4 -72.4 167.8 -84.5 146.4C-96.6 124.9 -84.7 82.6 -94.7 54.7C-104.8 26.8 -136.9 13.4 -169 0L0 0Z" fill="#96446e"></path><path d="M0 135.2C-29 134.7 -57.9 134.3 -67.6 117.1C-77.3 99.9 -67.7 66 -75.8 43.8C-83.8 21.5 -109.5 10.7 -135.2 0L0 0Z" fill="#c55469"></path><path d="M0 101.4C-21.7 101.1 -43.4 100.7 -50.7 87.8C-58 74.9 -50.8 49.5 -56.8 32.8C-62.9 16.1 -82.1 8 -101.4 0L0 0Z" fill="#e9705a"></path><path d="M0 67.6C-14.5 67.4 -29 67.1 -33.8 58.5C-38.6 50 -33.9 33 -37.9 21.9C-41.9 10.7 -54.8 5.4 -67.6 0L0 0Z" fill="#fa9845"></path><path d="M0 33.8C-7.2 33.7 -14.5 33.6 -16.9 29.3C-19.3 25 -16.9 16.5 -18.9 10.9C-21 5.4 -27.4 2.7 -33.8 0L0 0Z" fill="#fbae3c"></path></g><g transform="translate(0, 600)"><path d="M0 -270.4C50.8 -265.3 101.5 -260.3 135.2 -234.2C168.9 -208.1 185.6 -161 205.2 -118.5C224.9 -76 247.7 -38 270.4 0L0 0Z" fill="#0c1c30"></path><path d="M0 -236.6C44.4 -232.2 88.8 -227.7 118.3 -204.9C147.8 -182.1 162.4 -140.9 179.6 -103.7C196.8 -66.5 216.7 -33.2 236.6 0L0 0Z" fill="#312c4f"></path><path d="M0 -202.8C38.1 -199 76.1 -195.2 101.4 -175.6C126.7 -156.1 139.2 -120.8 153.9 -88.9C168.7 -57 185.8 -28.5 202.8 0L0 0Z" fill="#623965"></path><path d="M0 -169C31.7 -165.8 63.4 -162.7 84.5 -146.4C105.6 -130.1 116 -100.6 128.3 -74.1C140.6 -47.5 154.8 -23.7 169 0L0 0Z" fill="#96446e"></path><path d="M0 -135.2C25.4 -132.7 50.8 -130.1 67.6 -117.1C84.5 -104.1 92.8 -80.5 102.6 -59.3C112.5 -38 123.8 -19 135.2 0L0 0Z" fill="#c55469"></path><path d="M0 -101.4C19 -99.5 38.1 -97.6 50.7 -87.8C63.3 -78 69.6 -60.4 77 -44.4C84.4 -28.5 92.9 -14.2 101.4 0L0 0Z" fill="#e9705a"></path><path d="M0 -67.6C12.7 -66.3 25.4 -65.1 33.8 -58.5C42.2 -52 46.4 -40.3 51.3 -29.6C56.2 -19 61.9 -9.5 67.6 0L0 0Z" fill="#fa9845"></path><path d="M0 -33.8C6.3 -33.2 12.7 -32.5 16.9 -29.3C21.1 -26 23.2 -20.1 25.7 -14.8C28.1 -9.5 31 -4.7 33.8 0L0 0Z" fill="#fbae3c"></path></g></svg>