<svg id="visual" viewBox="0 0 900 600" width="900" height="600" xmlns="http://www.w3.org/2000/svg" xmlns:xlink="http://www.w3.org/1999/xlink" version="1.1"><rect x="0" y="0" width="900" height="600" fill="#001220"></rect><defs><linearGradient id="grad1_0" x1="33.3%" y1="0%" x2="100%" y2="100%"><stop offset="20%" stop-color="#fbae3c" stop-opacity="1"></stop><stop offset="80%" stop-color="#fbae3c" stop-opacity="1"></stop></linearGradient></defs><defs><linearGradient id="grad1_1" x1="33.3%" y1="0%" x2="100%" y2="100%"><stop offset="20%" stop-color="#fbae3c" stop-opacity="1"></stop><stop offset="80%" stop-color="#f48350" stop-opacity="1"></stop></linearGradient></defs><defs><linearGradient id="grad1_2" x1="33.3%" y1="0%" x2="100%" y2="100%"><stop offset="20%" stop-color="#d96162" stop-opacity="1"></stop><stop offset="80%" stop-color="#f48350" stop-opacity="1"></stop></linearGradient></defs><defs><linearGradient id="grad1_3" x1="33.3%" y1="0%" x2="100%" y2="100%"><stop offset="20%" stop-color="#d96162" stop-opacity="1"></stop><stop offset="80%" stop-color="#af4b6d" stop-opacity="1"></stop></linearGradient></defs><defs><linearGradient id="grad1_4" x1="33.3%" y1="0%" x2="100%" y2="100%"><stop offset="20%" stop-color="#7c3e6b" stop-opacity="1"></stop><stop offset="80%" stop-color="#af4b6d" stop-opacity="1"></stop></linearGradient></defs><defs><linearGradient id="grad1_5" x1="33.3%" y1="0%" x2="100%" y2="100%"><stop offset="20%" stop-color="#7c3e6b" stop-opacity="1"></stop><stop offset="80%" stop-color="#49335c" stop-opacity="1"></stop></linearGradient></defs><defs><linearGradient id="grad1_6" x1="33.3%" y1="0%" x2="100%" y2="100%"><stop offset="20%" stop-color="#1d2540" stop-opacity="1"></stop><stop offset="80%" stop-color="#49335c" stop-opacity="1"></stop></linearGradient></defs><defs><linearGradient id="grad1_7" x1="33.3%" y1="0%" x2="100%" y2="100%"><stop offset="20%" stop-color="#1d2540" stop-opacity="1"></stop><stop offset="80%" stop-color="#001220" stop-opacity="1"></stop></linearGradient></defs><defs><linearGradient id="grad2_0" x1="0%" y1="0%" x2="66.7%" y2="100%"><stop offset="20%" stop-color="#fbae3c" stop-opacity="1"></stop><stop offset="80%" stop-color="#fbae3c" stop-opacity="1"></stop></linearGradient></defs><defs><linearGradient id="grad2_1" x1="0%" y1="0%" x2="66.7%" y2="100%"><stop offset="20%" stop-color="#f48350" stop-opacity="1"></stop><stop offset="80%" stop-color="#fbae3c" stop-opacity="1"></stop></linearGradient></defs><defs><linearGradient id="grad2_2" x1="0%" y1="0%" x2="66.7%" y2="100%"><stop offset="20%" stop-color="#f48350" stop-opacity="1"></stop><stop offset="80%" stop-color="#d96162" stop-opacity="1"></stop></linearGradient></defs><defs><linearGradient id="grad2_3" x1="0%" y1="0%" x2="66.7%" y2="100%"><stop offset="20%" stop-color="#af4b6d" stop-opacity="1"></stop><stop offset="80%" stop-color="#d96162" stop-opacity="1"></stop></linearGradient></defs><defs><linearGradient id="grad2_4" x1="0%" y1="0%" x2="66.7%" y2="100%"><stop offset="20%" stop-color="#af4b6d" stop-opacity="1"></stop><stop offset="80%" stop-color="#7c3e6b" stop-opacity="1"></stop></linearGradient></defs><defs><linearGradient id="grad2_5" x1="0%" y1="0%" x2="66.7%" y2="100%"><stop offset="20%" stop-color="#49335c" stop-opacity="1"></stop><stop offset="80%" stop-color="#7c3e6b" stop-opacity="1"></stop></linearGradient></defs><defs><linearGradient id="grad2_6" x1="0%" y1="0%" x2="66.7%" y2="100%"><stop offset="20%" stop-color="#49335c" stop-opacity="1"></stop><stop offset="80%" stop-color="#1d2540" stop-opacity="1"></stop></linearGradient></defs><defs><linearGradient id="grad2_7" x1="0%" y1="0%" x2="66.7%" y2="100%"><stop offset="20%" stop-color="#001220" stop-opacity="1"></stop><stop offset="80%" stop-color="#1d2540" stop-opacity="1"></stop></linearGradient></defs><g transform="translate(900, 0)"><path d="M0 540.8C-100.4 530 -200.7 519.2 -270.4 468.4C-340.1 417.6 -379.2 326.7 -419.2 242C-459.1 157.3 -500 78.6 -540.8 0L0 0Z" fill="#0c1c30"></path><path d="M0 473.2C-87.8 463.8 -175.6 454.3 -236.6 409.8C-297.6 365.4 -331.8 285.9 -366.8 211.8C-401.7 137.6 -437.5 68.8 -473.2 0L0 0Z" fill="#312c4f"></path><path d="M0 405.6C-75.3 397.5 -150.5 389.4 -202.8 351.3C-255.1 313.2 -284.4 245 -314.4 181.5C-344.3 118 -375 59 -405.6 0L0 0Z" fill="#623965"></path><path d="M0 338C-62.7 331.3 -125.4 324.5 -169 292.7C-212.6 261 -237 204.2 -262 151.3C-286.9 98.3 -312.5 49.1 -338 0L0 0Z" fill="#96446e"></path><path d="M0 270.4C-50.2 265 -100.4 259.6 -135.2 234.2C-170.1 208.8 -189.6 163.4 -209.6 121C-229.6 78.6 -250 39.3 -270.4 0L0 0Z" fill="#c55469"></path><path d="M0 202.8C-37.6 198.8 -75.3 194.7 -101.4 175.6C-127.5 156.6 -142.2 122.5 -157.2 90.8C-172.2 59 -187.5 29.5 -202.8 0L0 0Z" fill="#e9705a"></path><path d="M0 135.2C-25.1 132.5 -50.2 129.8 -67.6 117.1C-85 104.4 -94.8 81.7 -104.8 60.5C-114.8 39.3 -125 19.7 -135.2 0L0 0Z" fill="#fa9845"></path><path d="M0 67.6C-12.5 66.3 -25.1 64.9 -33.8 58.5C-42.5 52.2 -47.4 40.8 -52.4 30.3C-57.4 19.7 -62.5 9.8 -67.6 0L0 0Z" fill="#fbae3c"></path></g><g transform="translate(0, 600)"><path d="M0 -540.8C113.2 -537.4 226.3 -534 270.4 -468.4C314.5 -402.8 289.5 -274.9 323 -186.5C356.6 -98.1 448.7 -49 540.8 0L0 0Z" fill="#0c1c30"></path><path d="M0 -473.2C99 -470.2 198 -467.2 236.6 -409.8C275.2 -352.4 253.3 -240.6 282.6 -163.2C312 -85.8 392.6 -42.9 473.2 0L0 0Z" fill="#312c4f"></path><path d="M0 -405.6C84.9 -403.1 169.8 -400.5 202.8 -351.3C235.9 -302.1 217.1 -206.2 242.3 -139.9C267.4 -73.6 336.5 -36.8 405.6 0L0 0Z" fill="#623965"></path><path d="M0 -338C70.7 -335.9 141.5 -333.7 169 -292.7C196.6 -251.7 180.9 -171.8 201.9 -116.6C222.9 -61.3 280.4 -30.6 338 0L0 0Z" fill="#96446e"></path><path d="M0 -270.4C56.6 -268.7 113.2 -267 135.2 -234.2C157.2 -201.4 144.7 -137.5 161.5 -93.3C178.3 -49 224.4 -24.5 270.4 0L0 0Z" fill="#c55469"></path><path d="M0 -202.8C42.4 -201.5 84.9 -200.2 101.4 -175.6C117.9 -151 108.6 -103.1 121.1 -69.9C133.7 -36.8 168.3 -18.4 202.8 0L0 0Z" fill="#e9705a"></path><path d="M0 -135.2C28.3 -134.4 56.6 -133.5 67.6 -117.1C78.6 -100.7 72.4 -68.7 80.8 -46.6C89.1 -24.5 112.2 -12.3 135.2 0L0 0Z" fill="#fa9845"></path><path d="M0 -67.6C14.1 -67.2 28.3 -66.7 33.8 -58.5C39.3 -50.3 36.2 -34.4 40.4 -23.3C44.6 -12.3 56.1 -6.1 67.6 0L0 0Z" fill="#fbae3c"></path></g></svg>